<svg width="10" height="9" viewBox="0 0 10 9" fill="none" xmlns="http://www.w3.org/2000/svg">
<path d="M2.92563 4.01807C2.46168 3.50686 1.67115 3.46855 1.15994 3.9325C0.648726 4.39645 0.610413 5.18698 1.07436 5.69819L2.92563 4.01807ZM4.2944 7.38626L3.36876 8.22632C3.60988 8.492 3.95354 8.64127 4.31229 8.63613C4.67104 8.631 5.01028 8.47196 5.2437 8.19948L4.2944 7.38626ZM9.69466 3.0037C10.1438 2.47941 10.0829 1.69031 9.55858 1.24118C9.0343 0.79205 8.24519 0.852976 7.79606 1.37726L9.69466 3.0037ZM1.07436 5.69819L3.36876 8.22632L5.22003 6.5462L2.92563 4.01807L1.07436 5.69819ZM5.2437 8.19948L9.69466 3.0037L7.79606 1.37726L3.3451 6.57304L5.2437 8.19948Z" fill="#47BF7C"/>
</svg>
